<svg xmlns="http://www.w3.org/2000/svg" width="20" height="20" viewBox="0 0 20 20" fill="none">
  <path fill-rule="evenodd" clip-rule="evenodd" d="M13.6934 2.5C13.6934 2.08579 13.3576 1.75 12.9434 1.75C12.5291 1.75 12.1934 2.08579 12.1934 2.5V3.41667H7.02669V2.5C7.02669 2.08579 6.69091 1.75 6.27669 1.75C5.86248 1.75 5.52669 2.08579 5.52669 2.5V3.41667H4.61003C3.27534 3.41667 2.19336 4.49865 2.19336 5.83333V9.16667V15.8333C2.19336 17.168 3.27534 18.25 4.61003 18.25H14.61C15.9447 18.25 17.0267 17.168 17.0267 15.8333V9.16667V5.83333C17.0267 4.49865 15.9447 3.41667 14.61 3.41667H13.6934V2.5ZM15.5267 8.41667V5.83333C15.5267 5.32707 15.1163 4.91667 14.61 4.91667H13.6934V5.83333C13.6934 6.24755 13.3576 6.58333 12.9434 6.58333C12.5291 6.58333 12.1934 6.24755 12.1934 5.83333V4.91667H7.02669V5.83333C7.02669 6.24755 6.69091 6.58333 6.27669 6.58333C5.86248 6.58333 5.52669 6.24755 5.52669 5.83333V4.91667H4.61003C4.10377 4.91667 3.69336 5.32707 3.69336 5.83333V8.41667H15.5267ZM3.69336 9.91667H15.5267V15.8333C15.5267 16.3396 15.1163 16.75 14.61 16.75H4.61003C4.10377 16.75 3.69336 16.3396 3.69336 15.8333V9.91667Z" fill="#282828"/>
</svg>