<svg width="18" height="18" viewBox="0 0 18 18" fill="none" xmlns="http://www.w3.org/2000/svg">
<g id="Icon/calendar">
<path id="Union" fill-rule="evenodd" clip-rule="evenodd" d="M12.3984 2.25C12.3984 1.83579 12.0627 1.5 11.6484 1.5C11.2342 1.5 10.8984 1.83579 10.8984 2.25V3H6.39844V2.25C6.39844 1.83579 6.06265 1.5 5.64844 1.5C5.23422 1.5 4.89844 1.83579 4.89844 2.25V3H4.14844C2.9058 3 1.89844 4.00736 1.89844 5.25V8.25V14.25C1.89844 15.4926 2.9058 16.5 4.14844 16.5H13.1484C14.3911 16.5 15.3984 15.4926 15.3984 14.25V8.25V5.25C15.3984 4.00736 14.3911 3 13.1484 3H12.3984V2.25ZM13.8984 7.5V5.25C13.8984 4.83579 13.5627 4.5 13.1484 4.5H12.3984V5.25C12.3984 5.66421 12.0627 6 11.6484 6C11.2342 6 10.8984 5.66421 10.8984 5.25V4.5H6.39844V5.25C6.39844 5.66421 6.06265 6 5.64844 6C5.23422 6 4.89844 5.66421 4.89844 5.25V4.5H4.14844C3.73422 4.5 3.39844 4.83579 3.39844 5.25V7.5H13.8984ZM3.39844 9H13.8984V14.25C13.8984 14.6642 13.5627 15 13.1484 15H4.14844C3.73422 15 3.39844 14.6642 3.39844 14.25V9Z" fill="#BDBDBD"/>
</g>
</svg>
