<svg width="18" height="18" viewBox="0 0 18 18" fill="none" xmlns="http://www.w3.org/2000/svg">
<g id="Icon/dit">
<path id="Union" fill-rule="evenodd" clip-rule="evenodd" d="M12.375 2.75391C11.6135 2.75391 10.8831 3.05642 10.3447 3.5949L9.59467 4.3449L2.46967 11.4699C2.32902 11.6105 2.25 11.8013 2.25 12.0002V15.0002C2.25 15.4144 2.58579 15.7502 3 15.7502H6C6.19891 15.7502 6.38968 15.6712 6.53033 15.5306L13.654 8.40689C13.6544 8.40645 13.6549 8.406 13.6553 8.40556C13.6558 8.40511 13.6562 8.40467 13.6567 8.40422L14.4053 7.65556C14.9438 7.11708 15.2463 6.38675 15.2463 5.62523C15.2463 4.86371 14.9438 4.13337 14.4053 3.5949C13.8669 3.05642 13.1365 2.75391 12.375 2.75391ZM13.125 6.81457L13.3447 6.5949C13.6018 6.33772 13.7463 5.98892 13.7463 5.62523C13.7463 5.26153 13.6018 4.91273 13.3447 4.65556C13.0875 4.39838 12.7387 4.25391 12.375 4.25391C12.0113 4.25391 11.6625 4.39838 11.4053 4.65556L11.1857 4.87523L13.125 6.81457ZM10.125 5.93589L3.75 12.3109V14.2502H5.68934L12.0643 7.87523L10.125 5.93589Z" fill="#BDBDBD"/>
</g>
</svg>
