<svg xmlns="http://www.w3.org/2000/svg" width="18" height="18" viewBox="0 0 18 18" fill="none">
  <path fill-rule="evenodd" clip-rule="evenodd" d="M6.24414 3.711C5.0015 3.711 3.99414 4.71836 3.99414 5.961V11.961C3.99414 13.2036 5.0015 14.211 6.24414 14.211H12.2441C13.4868 14.211 14.4941 13.2036 14.4941 11.961V5.961C14.4941 4.71836 13.4868 3.711 12.2441 3.711H6.24414ZM2.49414 5.961C2.49414 3.88993 4.17307 2.211 6.24414 2.211H12.2441C14.3152 2.211 15.9941 3.88993 15.9941 5.961V11.961C15.9941 14.0321 14.3152 15.711 12.2441 15.711H6.24414C4.17307 15.711 2.49414 14.0321 2.49414 11.961V5.961ZM9.24414 7.461C8.41571 7.461 7.74414 8.13257 7.74414 8.961C7.74414 9.78943 8.41571 10.461 9.24414 10.461C10.0726 10.461 10.7441 9.78943 10.7441 8.961C10.7441 8.13257 10.0726 7.461 9.24414 7.461ZM6.24414 8.961C6.24414 7.30415 7.58729 5.961 9.24414 5.961C10.901 5.961 12.2441 7.30415 12.2441 8.961C12.2441 10.6179 10.901 11.961 9.24414 11.961C7.58729 11.961 6.24414 10.6179 6.24414 8.961ZM13.3691 5.586C13.3691 5.17179 13.0334 4.836 12.6191 4.836C12.2049 4.836 11.8691 5.17179 11.8691 5.586V5.58675C11.8691 6.00096 12.2049 6.33675 12.6191 6.33675C13.0334 6.33675 13.3691 6.00096 13.3691 5.58675V5.586Z" fill="#BDBDBD"/>
</svg>