<svg xmlns="http://www.w3.org/2000/svg" width="18" height="18" viewBox="0 0 18 18" fill="none">
  <path fill-rule="evenodd" clip-rule="evenodd" d="M3.28922 4.8267C3.41416 4.58627 3.66548 4.42204 3.95516 4.42204H14.4552C14.7448 4.42204 14.9962 4.58627 15.1211 4.8267L9.20516 8.77066L3.28922 4.8267ZM1.7052 5.15767C1.70505 5.16588 1.70504 5.17409 1.70516 5.1823V12.672C1.70516 13.9147 2.71252 14.922 3.95516 14.922H14.4552C15.6978 14.922 16.7052 13.9147 16.7052 12.672V5.18232M15.2052 6.57343V12.672C15.2052 13.0863 14.8694 13.422 14.4552 13.422H3.95516C3.54094 13.422 3.20516 13.0863 3.20516 12.672V6.57343L8.78913 10.2961C9.04106 10.464 9.36926 10.464 9.62118 10.2961L15.2052 6.57343ZM16.7051 5.15765C16.6974 3.92163 15.693 2.92204 14.4552 2.92204H3.95516C2.71731 2.92204 1.71294 3.92164 1.7052 5.15767" fill="#BDBDBD"/>
</svg>