<svg width="40" height="40" viewBox="0 0 40 40" fill="none" xmlns="http://www.w3.org/2000/svg">
<g id="Icon/Add">
<path id="Union" fill-rule="evenodd" clip-rule="evenodd" d="M20.7144 8.33294C20.7144 7.93845 20.3946 7.61865 20.0001 7.61865C19.6056 7.61865 19.2858 7.93845 19.2858 8.33294V19.2853H8.33343C7.93894 19.2853 7.61914 19.6051 7.61914 19.9996C7.61914 20.3941 7.93894 20.7139 8.33343 20.7139H19.2858V31.6663C19.2858 32.0608 19.6056 32.3806 20.0001 32.3806C20.3946 32.3806 20.7144 32.0608 20.7144 31.6663V20.7139H31.6668C32.0612 20.7139 32.381 20.3941 32.381 19.9996C32.381 19.6051 32.0612 19.2853 31.6668 19.2853H20.7144V8.33294Z" fill="#9D9FA2"/>
</g>
</svg>
