<svg xmlns="http://www.w3.org/2000/svg" width="18" height="18" viewBox="0 0 18 18" fill="none">
  <path d="M16.2266 2.92954C15.4766 3.29704 14.7416 3.44629 13.9766 3.67204C13.1358 2.72329 11.8893 2.67079 10.6916 3.11929C9.49381 3.56779 8.70931 4.66429 8.72656 5.92204V6.67204C6.29281 6.73429 4.12531 5.62579 2.72656 3.67204C2.72656 3.67204 -0.409938 9.24679 5.72656 11.922C4.32256 12.8573 2.92231 13.488 1.22656 13.422C3.70756 14.7743 6.41131 15.2393 8.75206 14.5598C11.4371 13.7798 13.6436 11.7675 14.4903 8.75329C14.7429 7.83655 14.8683 6.88944 14.8631 5.93854C14.8616 5.75179 15.9956 3.85954 16.2266 2.92879V2.92954Z" stroke="#BDBDBD" stroke-width="1.5" stroke-linecap="round" stroke-linejoin="round"/>
</svg>